<svg width="9" height="8" viewBox="0 0 9 8" fill="none" xmlns="http://www.w3.org/2000/svg">
<g clip-path="url(#clip0_1631_738)">
<path d="M1.5 1.33334V0.333344H2.16667V1.33334H3.16667V2.00001H2.16667V3.00001H1.5V2.00001H0.5V1.33334H1.5ZM2.5 3.33334V2.33334H3.5V1.33334H5.83333L6.44333 2.00001H7.5C7.86667 2.00001 8.16667 2.30001 8.16667 2.66668V6.66668C8.16667 7.03334 7.86667 7.33334 7.5 7.33334H2.16667C1.8 7.33334 1.5 7.03334 1.5 6.66668V3.33334H2.5ZM4.83333 6.33334C5.75333 6.33334 6.5 5.58668 6.5 4.66668C6.5 3.74668 5.75333 3.00001 4.83333 3.00001C3.91333 3.00001 3.16667 3.74668 3.16667 4.66668C3.16667 5.58668 3.91333 6.33334 4.83333 6.33334ZM3.76667 4.66668C3.76667 5.25668 4.24333 5.73334 4.83333 5.73334C5.42333 5.73334 5.9 5.25668 5.9 4.66668C5.9 4.07668 5.42333 3.60001 4.83333 3.60001C4.24333 3.60001 3.76667 4.07668 3.76667 4.66668Z" fill="white"/>
</g>
<defs>
<clipPath id="clip0_1631_738">
<rect width="8" height="8" fill="white" transform="translate(0.5)"/>
</clipPath>
</defs>
</svg>
