<svg width="24" height="2460" viewBox="0 0 24 2460" fill="none" xmlns="http://www.w3.org/2000/svg">
<g clip-path="url(#clip0_1_496)">
<path d="M20 11H7.83L13.42 5.41L12 4L4 12L12 20L13.41 18.59L7.83 13H20V11Z" fill="black"/>
</g>
<g clip-path="url(#clip1_1_496)">
<path d="M19 50.41L17.59 49L12 54.59L6.41 49L5 50.41L10.59 56L5 61.59L6.41 63L12 57.41L17.59 63L19 61.59L13.41 56L19 50.41Z" fill="black"/>
</g>
<g clip-path="url(#clip2_1_496)">
<path d="M17.8333 90.3333C17.8333 89.6917 17.3083 89.1667 16.6667 89.1667H7.33332C6.69166 89.1667 6.16666 89.6917 6.16666 90.3333V97.3333C6.16666 97.975 6.69166 98.5 7.33332 98.5H15.5L17.8333 100.833V90.3333ZM16.6667 98.0158L15.9842 97.3333H7.33332V90.3333H16.6667V98.0158ZM12.5833 90.9167H11.4167V93.25H9.08332V94.4167H11.4167V96.75H12.5833V94.4167H14.9167V93.25H12.5833V90.9167Z" fill="black"/>
</g>
<g clip-path="url(#clip3_1_496)">
<path d="M12 123.167C8.77999 123.167 6.16666 125.78 6.16666 129C6.16666 132.22 8.77999 134.833 12 134.833C15.22 134.833 17.8333 132.22 17.8333 129C17.8333 125.78 15.22 123.167 12 123.167ZM7.33332 129C7.33332 126.422 9.42166 124.333 12 124.333C13.0792 124.333 14.0708 124.701 14.8583 125.319L8.31916 131.858C7.70082 131.071 7.33332 130.079 7.33332 129ZM12 133.667C10.9208 133.667 9.92916 133.299 9.14166 132.681L15.6808 126.142C16.2992 126.929 16.6667 127.921 16.6667 129C16.6667 131.578 14.5783 133.667 12 133.667Z" fill="black"/>
</g>
<g clip-path="url(#clip4_1_496)">
<path d="M4 160H20V172H5.17L4 173.17V160ZM4 158C2.9 158 2.01 158.9 2.01 160L2 178L6 174H20C21.1 174 22 173.1 22 172V160C22 158.9 21.1 158 20 158H4ZM6 168H18V170H6V168ZM6 165H18V167H6V165ZM6 162H18V164H6V162Z" fill="black"/>
</g>
<g clip-path="url(#clip5_1_496)">
<path d="M20 202H4C2.9 202 2 202.9 2 204V222L6 218H20C21.1 218 22 217.1 22 216V204C22 202.9 21.1 202 20 202ZM20 216H5.17L4 217.17V204H20V216ZM11 205H13V211H11V205ZM11 213H13V215H11V213Z" fill="black"/>
</g>
<g clip-path="url(#clip6_1_496)">
<path d="M15.5 258H14.71L14.43 257.73C15.41 256.59 16 255.11 16 253.5C16 249.91 13.09 247 9.5 247C5.91 247 3 249.91 3 253.5C3 257.09 5.91 260 9.5 260C11.11 260 12.59 259.41 13.73 258.43L14 258.71V259.5L19 264.49L20.49 263L15.5 258V258ZM9.5 258C7.01 258 5 255.99 5 253.5C5 251.01 7.01 249 9.5 249C11.99 249 14 251.01 14 253.5C14 255.99 11.99 258 9.5 258Z" fill="black"/>
</g>
<g clip-path="url(#clip7_1_496)">
<path d="M12 288.583L6.75 290.917V294.417C6.75 297.654 8.99 300.682 12 301.417C15.01 300.682 17.25 297.654 17.25 294.417V290.917L12 288.583ZM10.8333 297.917L8.5 295.583L9.3225 294.761L10.8333 296.266L14.6775 292.422L15.5 293.25L10.8333 297.917Z" fill="#A6B06A"/>
</g>
<g clip-path="url(#clip8_1_496)">
<path d="M19.3333 330L17.7067 328.14L17.9333 325.68L15.5267 325.133L14.2667 323L12 323.973L9.73332 323L8.47332 325.127L6.06666 325.667L6.29332 328.133L4.66666 330L6.29332 331.86L6.06666 334.327L8.47332 334.873L9.73332 337L12 336.02L14.2667 336.993L15.5267 334.867L17.9333 334.32L17.7067 331.86L19.3333 330ZM10.7267 333.147L8.19332 330.607L9.17999 329.62L10.7267 331.173L14.6267 327.26L15.6133 328.247L10.7267 333.147Z" fill="#58B6C2"/>
</g>
<g clip-path="url(#clip9_1_496)">
<path d="M17.3333 360.667H6.66665C5.92665 360.667 5.33998 361.26 5.33998 362L5.33331 370C5.33331 370.74 5.92665 371.333 6.66665 371.333H17.3333C18.0733 371.333 18.6666 370.74 18.6666 370V362C18.6666 361.26 18.0733 360.667 17.3333 360.667ZM9.66665 368H8.86665L7.16665 365.667V368H6.33331V364H7.16665L8.83331 366.333V364H9.66665V368ZM13 364.84H11.3333V365.587H13V366.427H11.3333V367.167H13V368H10.3333V364H13V364.84ZM17.6666 367.333C17.6666 367.7 17.3666 368 17 368H14.3333C13.9666 368 13.6666 367.7 13.6666 367.333V364H14.5V367.007H15.2533V364.66H16.0866V367H16.8333V364H17.6666V367.333Z" fill="#8F5BC6"/>
</g>
<g clip-path="url(#clip10_1_496)">
<path d="M18.6667 396.667C18.6667 395.933 18.0667 395.333 17.3333 395.333H6.66668C5.93334 395.333 5.34001 395.933 5.34001 396.667L5.33334 408.667L8.00001 406H14V400.667H18.6667V396.667Z" fill="#5A6CB3"/>
<path d="M19 404.667H17.5333L18.6667 402H15.3333V406H16.6667V409.333L19 404.667Z" fill="#5A6CB3"/>
</g>
<g clip-path="url(#clip11_1_496)">
<path d="M16 434.667L15.06 433.727L10.8333 437.953L11.7733 438.893L16 434.667ZM18.8266 433.727L11.7733 440.78L8.98665 438L8.04665 438.94L11.7733 442.667L19.7733 434.667L18.8266 433.727ZM4.27332 438.94L7.99998 442.667L8.93998 441.727L5.21998 438L4.27332 438.94Z" fill="#58B6C2"/>
</g>
<g clip-path="url(#clip12_1_496)">
<path d="M12 480.233L11.0333 479.353C7.60001 476.24 5.33334 474.187 5.33334 471.667C5.33334 469.613 6.94668 468 9.00001 468C10.16 468 11.2733 468.54 12 469.393C12.7267 468.54 13.84 468 15 468C17.0533 468 18.6667 469.613 18.6667 471.667C18.6667 474.187 16.4 476.24 12.9667 479.36L12 480.233Z" fill="black"/>
</g>
<g clip-path="url(#clip13_1_496)">
<path d="M12 509C11.3583 509 10.8333 508.475 10.8333 507.833C10.8333 507.192 11.3583 506.667 12 506.667C12.6417 506.667 13.1667 507.192 13.1667 507.833C13.1667 508.475 12.6417 509 12 509ZM15.5 507.95C15.5 505.833 13.9542 504.333 12 504.333C10.0458 504.333 8.50001 505.833 8.50001 507.95C8.50001 509.315 9.63751 511.123 12 513.282C14.3625 511.123 15.5 509.315 15.5 507.95ZM12 503.167C14.45 503.167 16.6667 505.045 16.6667 507.95C16.6667 509.887 15.1092 512.179 12 514.833C8.89084 512.179 7.33334 509.887 7.33334 507.95C7.33334 505.045 9.55001 503.167 12 503.167Z" fill="black"/>
</g>
<g clip-path="url(#clip14_1_496)">
<path d="M15 548H17C17 545.24 14.76 543 12 543V545C13.66 545 15 546.34 15 548ZM19 548H21C21 543.03 16.97 539 12 539V541C15.87 541 19 544.13 19 548ZM20 551.5C18.75 551.5 17.55 551.3 16.43 550.93C16.33 550.9 16.22 550.88 16.12 550.88C15.86 550.88 15.61 550.98 15.41 551.17L13.21 553.37C10.38 551.93 8.06 549.62 6.62 546.78L8.82 544.57C9.1 544.31 9.18 543.92 9.07 543.57C8.7 542.45 8.5 541.25 8.5 540C8.5 539.45 8.05 539 7.5 539H4C3.45 539 3 539.45 3 540C3 549.39 10.61 557 20 557C20.55 557 21 556.55 21 556V552.5C21 551.95 20.55 551.5 20 551.5ZM5.03 541H6.53C6.6 541.88 6.75 542.75 6.98 543.58L5.78 544.79C5.38 543.58 5.12 542.32 5.03 541V541ZM19 554.97C17.68 554.88 16.4 554.62 15.2 554.21L16.4 553.01C17.25 553.25 18.12 553.4 19 553.46V554.97Z" fill="black"/>
</g>
<g clip-path="url(#clip15_1_496)">
<path d="M17.3333 589.333C18.0697 589.333 18.6667 588.736 18.6667 588C18.6667 587.264 18.0697 586.667 17.3333 586.667C16.597 586.667 16 587.264 16 588C16 588.736 16.597 589.333 17.3333 589.333Z" fill="black"/>
<path d="M6.66668 589.333C7.40306 589.333 8.00001 588.736 8.00001 588C8.00001 587.264 7.40306 586.667 6.66668 586.667C5.9303 586.667 5.33334 587.264 5.33334 588C5.33334 588.736 5.9303 589.333 6.66668 589.333Z" fill="black"/>
<path d="M12 594.667C12.7364 594.667 13.3334 594.07 13.3334 593.333C13.3334 592.597 12.7364 592 12 592C11.2636 592 10.6667 592.597 10.6667 593.333C10.6667 594.07 11.2636 594.667 12 594.667Z" fill="black"/>
<path d="M16.2316 582.818L13.2954 585.746L14.2368 586.69L17.1731 583.762L16.2316 582.818Z" fill="black"/>
<path d="M9.54665 586.453L9.75332 586.667L10.7 585.727L8.01999 583.033H8.01332L7.80665 582.82L6.85999 583.76L9.53999 586.46L9.54665 586.453Z" fill="black"/>
<path d="M14.2733 589.293L13.3333 590.233L15.9933 592.907L16.2267 593.14L17.1733 592.2L14.5133 589.527L14.2733 589.293Z" fill="black"/>
<path d="M9.72669 589.3L7.04002 591.973L6.82669 592.193L7.76669 593.133L10.4534 590.453L10.6734 590.24L9.72669 589.3Z" fill="black"/>
<path d="M12 584C12.7364 584 13.3334 583.403 13.3334 582.667C13.3334 581.93 12.7364 581.333 12 581.333C11.2636 581.333 10.6667 581.93 10.6667 582.667C10.6667 583.403 11.2636 584 12 584Z" fill="black"/>
</g>
<g clip-path="url(#clip16_1_496)">
<path d="M18 617.333H5.99999C5.26666 617.333 4.66666 617.933 4.66666 618.667V626.667C4.66666 627.4 5.26666 628 5.99999 628H10.6667L9.33332 630V630.667H14.6667V630L13.3333 628H18C18.7333 628 19.3333 627.4 19.3333 626.667V618.667C19.3333 617.933 18.7333 617.333 18 617.333ZM18 625.333H5.99999V618.667H18V625.333Z" fill="black"/>
</g>
<g clip-path="url(#clip17_1_496)">
<path d="M16.9533 660.653C16.98 660.44 17 660.227 17 660C17 659.773 16.98 659.56 16.9533 659.347L18.36 658.247C18.4867 658.147 18.52 657.967 18.44 657.82L17.1067 655.513C17.0467 655.407 16.9333 655.347 16.8133 655.347C16.7733 655.347 16.7333 655.353 16.7 655.367L15.04 656.033C14.6933 655.767 14.32 655.547 13.9133 655.38L13.66 653.613C13.64 653.453 13.5 653.333 13.3333 653.333H10.6667C10.5 653.333 10.36 653.453 10.34 653.613L10.0867 655.38C9.68001 655.547 9.30668 655.773 8.96001 656.033L7.30001 655.367C7.26001 655.353 7.22001 655.347 7.18001 655.347C7.06668 655.347 6.95335 655.407 6.89335 655.513L5.56001 657.82C5.47335 657.967 5.51335 658.147 5.64002 658.247L7.04668 659.347C7.02002 659.56 7.00002 659.78 7.00002 660C7.00002 660.22 7.02002 660.44 7.04668 660.653L5.64002 661.753C5.51335 661.853 5.48001 662.033 5.56001 662.18L6.89335 664.487C6.95335 664.593 7.06668 664.653 7.18668 664.653C7.22668 664.653 7.26668 664.647 7.30001 664.633L8.96001 663.967C9.30668 664.233 9.68001 664.453 10.0867 664.62L10.34 666.387C10.36 666.547 10.5 666.667 10.6667 666.667H13.3333C13.5 666.667 13.64 666.547 13.66 666.387L13.9133 664.62C14.32 664.453 14.6933 664.227 15.04 663.967L16.7 664.633C16.74 664.647 16.78 664.653 16.82 664.653C16.9333 664.653 17.0467 664.593 17.1067 664.487L18.44 662.18C18.52 662.033 18.4867 661.853 18.36 661.753L16.9533 660.653V660.653ZM15.6333 659.513C15.66 659.72 15.6667 659.86 15.6667 660C15.6667 660.14 15.6533 660.287 15.6333 660.487L15.54 661.24L16.1333 661.707L16.8533 662.267L16.3867 663.073L15.54 662.733L14.8467 662.453L14.2467 662.907C13.96 663.12 13.6867 663.28 13.4133 663.393L12.7067 663.68L12.6 664.433L12.4667 665.333H11.5333L11.4067 664.433L11.3 663.68L10.5933 663.393C10.3067 663.273 10.04 663.12 9.77335 662.92L9.16668 662.453L8.46001 662.74L7.61335 663.08L7.14668 662.273L7.86668 661.713L8.46001 661.247L8.36668 660.493C8.34668 660.287 8.33335 660.133 8.33335 660C8.33335 659.867 8.34668 659.713 8.36668 659.513L8.46001 658.76L7.86668 658.293L7.14668 657.733L7.61335 656.927L8.46001 657.267L9.15335 657.547L9.75335 657.093C10.04 656.88 10.3133 656.72 10.5867 656.607L11.2933 656.32L11.4 655.567L11.5333 654.667H12.46L12.5867 655.567L12.6933 656.32L13.4 656.607C13.6867 656.727 13.9533 656.88 14.22 657.08L14.8267 657.547L15.5333 657.26L16.38 656.92L16.8467 657.727L16.1333 658.293L15.54 658.76L15.6333 659.513ZM12 657.333C10.5267 657.333 9.33335 658.527 9.33335 660C9.33335 661.473 10.5267 662.667 12 662.667C13.4733 662.667 14.6667 661.473 14.6667 660C14.6667 658.527 13.4733 657.333 12 657.333ZM12 661.333C11.2667 661.333 10.6667 660.733 10.6667 660C10.6667 659.267 11.2667 658.667 12 658.667C12.7333 658.667 13.3333 659.267 13.3333 660C13.3333 660.733 12.7333 661.333 12 661.333Z" fill="black"/>
</g>
<g clip-path="url(#clip18_1_496)">
<path d="M9.37 693.51C9.19 694.15 9.1 694.82 9.1 695.5C9.1 699.58 12.42 702.9 16.5 702.9C17.18 702.9 17.85 702.81 18.49 702.63C17.45 705.19 14.93 707 12 707C8.14 707 5 703.86 5 700C5 697.07 6.81 694.55 9.37 693.51ZM12 691C7.03 691 3 695.03 3 700C3 704.97 7.03 709 12 709C16.97 709 21 704.97 21 700C21 699.54 20.96 699.08 20.9 698.64C19.92 700.01 18.32 700.9 16.5 700.9C13.52 700.9 11.1 698.48 11.1 695.5C11.1 693.69 11.99 692.08 13.36 691.1C12.92 691.04 12.46 691 12 691Z" fill="black"/>
</g>
<g clip-path="url(#clip19_1_496)">
<path d="M18.59 742.52C19.64 743.03 20.63 743.67 21.55 744.43L20.48 745.5C19.9 745.03 19.27 744.61 18.6 744.23V742.52H18.59ZM5.4 742.52V744.22C4.75 744.59 4.12 745.01 3.53 745.49L2.46 744.42C3.37 743.67 4.36 743.04 5.4 742.52V742.52ZM12 739C7.46 739 3.34 740.78 0.29 743.67C0.11 743.85 0 744.1 0 744.38C0 744.66 0.11 744.91 0.29 745.08L2.77 747.56C2.95 747.74 3.2 747.85 3.48 747.85C3.75 747.85 4 747.75 4.18 747.57C4.97 746.84 5.86 746.21 6.84 745.72C7.17 745.56 7.4 745.21 7.4 744.82V741.72C8.85 741.25 10.4 741 12 741C13.6 741 15.15 741.25 16.59 741.73V744.83C16.59 745.23 16.82 745.57 17.15 745.73C18.13 746.22 19.03 746.84 19.82 747.58C20 747.75 20.25 747.86 20.52 747.86C20.8 747.86 21.05 747.75 21.23 747.57L23.71 745.09C23.89 744.91 24 744.66 24 744.38C24 744.1 23.89 743.85 23.71 743.67C20.66 740.78 16.54 739 12 739Z" fill="#C33F31"/>
</g>
<g clip-path="url(#clip20_1_496)">
<path d="M6.54 781C6.6 781.89 6.75 782.76 6.99 783.59L5.79 784.79C5.38 783.59 5.12 782.32 5.03 781H6.54V781ZM16.4 793.02C17.25 793.26 18.12 793.41 19 793.47V794.96C17.68 794.87 16.41 794.61 15.2 794.21L16.4 793.02V793.02ZM7.5 779H4C3.45 779 3 779.45 3 780C3 789.39 10.61 797 20 797C20.55 797 21 796.55 21 796V792.51C21 791.96 20.55 791.51 20 791.51C18.76 791.51 17.55 791.31 16.43 790.94C16.33 790.9 16.22 790.89 16.12 790.89C15.86 790.89 15.61 790.99 15.41 791.18L13.21 793.38C10.38 791.93 8.06 789.62 6.62 786.79L8.82 784.59C9.1 784.31 9.18 783.92 9.07 783.57C8.7 782.45 8.5 781.25 8.5 780C8.5 779.45 8.05 779 7.5 779Z" fill="#83884C"/>
</g>
<g clip-path="url(#clip21_1_496)">
<rect width="24" height="24" transform="translate(0 820)" fill="black" fill-opacity="0.51"/>
</g>
<g clip-path="url(#clip22_1_496)">
<path d="M20 866H4C2.9 866 2 866.9 2 868V886L6 882H20C21.1 882 22 881.1 22 880V868C22 866.9 21.1 866 20 866ZM20 880H6L4 882V868H20V880ZM7 873H9V875H7V873ZM11 873H13V875H11V873ZM15 873H17V875H15V873Z" fill="black"/>
</g>
<g clip-path="url(#clip23_1_496)">
<path d="M12 909.333C8.32001 909.333 5.33334 912.32 5.33334 916C5.33334 919.68 8.32001 922.667 12 922.667C15.68 922.667 18.6667 919.68 18.6667 916C18.6667 912.32 15.68 909.333 12 909.333ZM12 921.333C9.05334 921.333 6.66668 918.947 6.66668 916C6.66668 913.053 9.05334 910.667 12 910.667C14.9467 910.667 17.3333 913.053 17.3333 916C17.3333 918.947 14.9467 921.333 12 921.333Z" fill="#A6B06A"/>
<path d="M12 919.333C13.8409 919.333 15.3333 917.841 15.3333 916C15.3333 914.159 13.8409 912.667 12 912.667C10.159 912.667 8.66666 914.159 8.66666 916C8.66666 917.841 10.159 919.333 12 919.333Z" fill="#A6B06A"/>
</g>
<g clip-path="url(#clip24_1_496)">
<path d="M12 945.333C8.32001 945.333 5.33334 948.32 5.33334 952C5.33334 955.68 8.32001 958.667 12 958.667C15.68 958.667 18.6667 955.68 18.6667 952C18.6667 948.32 15.68 945.333 12 945.333ZM6.66668 952C6.66668 951.593 6.72001 951.193 6.80668 950.813L9.99334 954V954.667C9.99334 955.4 10.5933 956 11.3267 956V957.287C8.70668 956.953 6.66668 954.713 6.66668 952ZM15.9267 955.6C15.7533 955.06 15.26 954.667 14.66 954.667H13.9933V952.667C13.9933 952.3 13.6933 952 13.3267 952H9.32668V950.667H10.66C11.0267 950.667 11.3267 950.367 11.3267 950V948.667H12.66C13.3933 948.667 13.9933 948.067 13.9933 947.333V947.06C15.9467 947.847 17.3333 949.767 17.3333 952C17.3333 953.387 16.7933 954.653 15.9267 955.6Z" fill="black"/>
</g>
<g clip-path="url(#clip25_1_496)">
<path d="M12 986C13.1 986 14 986.9 14 988C14 989.1 13.1 990 12 990C10.9 990 10 989.1 10 988C10 986.9 10.9 986 12 986ZM12 996C14.7 996 17.8 997.29 18 998H6C6.23 997.28 9.31 996 12 996ZM12 984C9.79 984 8 985.79 8 988C8 990.21 9.79 992 12 992C14.21 992 16 990.21 16 988C16 985.79 14.21 984 12 984ZM12 994C9.33 994 4 995.34 4 998V1000H20V998C20 995.34 14.67 994 12 994Z" fill="black"/>
</g>
<g clip-path="url(#clip26_1_496)">
<path d="M15 1032V1040H5V1032H15ZM16 1030H4C3.45 1030 3 1030.45 3 1031V1041C3 1041.55 3.45 1042 4 1042H16C16.55 1042 17 1041.55 17 1041V1037.5L21 1041.5V1030.5L17 1034.5V1031C17 1030.45 16.55 1030 16 1030Z" fill="black"/>
</g>
<g clip-path="url(#clip27_1_496)">
<path d="M3 1086H21V1084H3V1086ZM3 1081H21V1079H3V1081ZM3 1074V1076H21V1074H3Z" fill="black"/>
</g>
<g clip-path="url(#clip28_1_496)">
<path d="M19.48 1124.35C17.91 1120.27 12.32 1120.05 13.67 1114.12C13.77 1113.68 13.3 1113.34 12.92 1113.57C9.29 1115.71 6.68 1120 8.87 1125.62C9.05 1126.08 8.51 1126.51 8.12 1126.21C6.31 1124.84 6.12 1122.87 6.28 1121.46C6.34 1120.94 5.66 1120.69 5.37 1121.12C4.69 1122.16 4 1123.84 4 1126.37C4.38 1131.97 9.11 1133.69 10.81 1133.91C13.24 1134.22 15.87 1133.77 17.76 1132.04C19.84 1130.11 20.6 1127.03 19.48 1124.35ZM10.2 1129.38C11.64 1129.03 12.38 1127.99 12.58 1127.07C12.91 1125.64 11.62 1124.24 12.49 1121.98C12.82 1123.85 15.76 1125.02 15.76 1127.06C15.84 1129.59 13.1 1131.76 10.2 1129.38Z" fill="#C33F31"/>
</g>
<g clip-path="url(#clip29_1_496)">
<path d="M12 1160.33C14.5267 1160.33 16.78 1161.75 17.88 1164C16.78 1166.25 14.5333 1167.67 12 1167.67C9.46666 1167.67 7.21999 1166.25 6.11999 1164C7.21999 1161.75 9.47332 1160.33 12 1160.33ZM12 1159C8.66666 1159 5.81999 1161.07 4.66666 1164C5.81999 1166.93 8.66666 1169 12 1169C15.3333 1169 18.18 1166.93 19.3333 1164C18.18 1161.07 15.3333 1159 12 1159ZM12 1162.33C12.92 1162.33 13.6667 1163.08 13.6667 1164C13.6667 1164.92 12.92 1165.67 12 1165.67C11.08 1165.67 10.3333 1164.92 10.3333 1164C10.3333 1163.08 11.08 1162.33 12 1162.33ZM12 1161C10.3467 1161 8.99999 1162.35 8.99999 1164C8.99999 1165.65 10.3467 1167 12 1167C13.6533 1167 15 1165.65 15 1164C15 1162.35 13.6533 1161 12 1161Z" fill="black"/>
</g>
<g clip-path="url(#clip30_1_496)">
<path d="M13.3733 1198.01L13.9867 1198.63L7.94667 1204.67H7.33333V1204.05L13.3733 1198.01V1198.01ZM15.7733 1194C15.6067 1194 15.4333 1194.07 15.3067 1194.19L14.0867 1195.41L16.5867 1197.91L17.8067 1196.69C18.0667 1196.43 18.0667 1196.01 17.8067 1195.75L16.2467 1194.19C16.1133 1194.06 15.9467 1194 15.7733 1194V1194ZM13.3733 1196.13L6 1203.5V1206H8.5L15.8733 1198.63L13.3733 1196.13V1196.13Z" fill="black"/>
</g>
<g clip-path="url(#clip31_1_496)">
<path d="M6.23001 1248.23L8.00001 1250L18 1240L8.00001 1230L6.23001 1231.77L14.46 1240L6.23001 1248.23Z" fill="black"/>
</g>
<g clip-path="url(#clip32_1_496)">
<path d="M6.99999 1278H17L11.99 1284.3L6.99999 1278ZM4.24999 1277.61C6.26999 1280.2 9.99999 1285 9.99999 1285V1291C9.99999 1291.55 10.45 1292 11 1292H13C13.55 1292 14 1291.55 14 1291V1285C14 1285 17.72 1280.2 19.74 1277.61C20.25 1276.95 19.78 1276 18.95 1276H5.03999C4.20999 1276 3.73999 1276.95 4.24999 1277.61Z" fill="black"/>
</g>
<g clip-path="url(#clip33_1_496)">
<path d="M12 1320C14.5267 1320 16.78 1321.42 17.88 1323.67C17.4867 1324.48 16.9333 1325.18 16.2733 1325.75L17.2133 1326.69C18.14 1325.87 18.8733 1324.84 19.3333 1323.67C18.18 1320.74 15.3333 1318.67 12 1318.67C11.1533 1318.67 10.34 1318.8 9.57332 1319.05L10.6733 1320.15C11.1067 1320.06 11.5467 1320 12 1320ZM11.2867 1320.76L12.6667 1322.14C13.0467 1322.31 13.3533 1322.61 13.52 1322.99L14.9 1324.37C14.9533 1324.15 14.9933 1323.91 14.9933 1323.66C15 1322.01 13.6533 1320.67 12 1320.67C11.7533 1320.67 11.52 1320.7 11.2867 1320.76ZM5.33999 1318.58L7.12666 1320.37C6.03999 1321.22 5.17999 1322.35 4.66666 1323.67C5.81999 1326.59 8.66666 1328.67 12 1328.67C13.0133 1328.67 13.9867 1328.47 14.88 1328.12L17.16 1330.4L18.1 1329.46L6.27999 1317.63L5.33999 1318.58ZM10.34 1323.58L12.08 1325.32C12.0533 1325.33 12.0267 1325.33 12 1325.33C11.08 1325.33 10.3333 1324.59 10.3333 1323.67C10.3333 1323.63 10.34 1323.61 10.34 1323.58V1323.58ZM8.07332 1321.31L9.23999 1322.48C9.08666 1322.85 8.99999 1323.25 8.99999 1323.67C8.99999 1325.32 10.3467 1326.67 12 1326.67C12.42 1326.67 12.82 1326.58 13.18 1326.43L13.8333 1327.08C13.2467 1327.24 12.6333 1327.33 12 1327.33C9.47332 1327.33 7.21999 1325.91 6.11999 1323.67C6.58666 1322.71 7.26666 1321.93 8.07332 1321.31Z" fill="black"/>
</g>
<g clip-path="url(#clip34_1_496)">
<path d="M14.59 1360L12 1362.59L9.41 1360L8 1361.41L10.59 1364L8 1366.59L9.41 1368L12 1365.41L14.59 1368L16 1366.59L13.41 1364L16 1361.41L14.59 1360ZM12 1354C6.47 1354 2 1358.47 2 1364C2 1369.53 6.47 1374 12 1374C17.53 1374 22 1369.53 22 1364C22 1358.47 17.53 1354 12 1354ZM12 1372C7.59 1372 4 1368.41 4 1364C4 1359.59 7.59 1356 12 1356C16.41 1356 20 1359.59 20 1364C20 1368.41 16.41 1372 12 1372Z" fill="black"/>
</g>
<g clip-path="url(#clip35_1_496)">
<path d="M15 1398C13.84 1398 12.7267 1398.54 12 1399.39C11.2733 1398.54 10.16 1398 9.00001 1398C6.94668 1398 5.33334 1399.61 5.33334 1401.67C5.33334 1404.19 7.60001 1406.24 11.0333 1409.36L12 1410.23L12.9667 1409.35C16.4 1406.24 18.6667 1404.19 18.6667 1401.67C18.6667 1399.61 17.0533 1398 15 1398ZM12.0667 1408.37L12 1408.43L11.9333 1408.37C8.76001 1405.49 6.66668 1403.59 6.66668 1401.67C6.66668 1400.33 7.66668 1399.33 9.00001 1399.33C10.0267 1399.33 11.0267 1399.99 11.38 1400.91H12.6267C12.9733 1399.99 13.9733 1399.33 15 1399.33C16.3333 1399.33 17.3333 1400.33 17.3333 1401.67C17.3333 1403.59 15.24 1405.49 12.0667 1408.37Z" fill="black"/>
</g>
<g opacity="0.7" clip-path="url(#clip36_1_496)">
<path d="M14.12 1437L15.95 1439H20V1451H4V1439H8.05L9.88 1437H14.12V1437ZM15 1435H9L7.17 1437H4C2.9 1437 2 1437.9 2 1439V1451C2 1452.1 2.9 1453 4 1453H20C21.1 1453 22 1452.1 22 1451V1439C22 1437.9 21.1 1437 20 1437H16.83L15 1435ZM12 1442C13.65 1442 15 1443.35 15 1445C15 1446.65 13.65 1448 12 1448C10.35 1448 9 1446.65 9 1445C9 1443.35 10.35 1442 12 1442ZM12 1440C9.24 1440 7 1442.24 7 1445C7 1447.76 9.24 1450 12 1450C14.76 1450 17 1447.76 17 1445C17 1442.24 14.76 1440 12 1440Z" fill="black"/>
</g>
<g opacity="0.7" clip-path="url(#clip37_1_496)">
<path d="M19 1481V1495H5V1481H19ZM19 1479H5C3.9 1479 3 1479.9 3 1481V1495C3 1496.1 3.9 1497 5 1497H19C20.1 1497 21 1496.1 21 1495V1481C21 1479.9 20.1 1479 19 1479ZM14.14 1487.86L11.14 1491.73L9 1489.14L6 1493H18L14.14 1487.86Z" fill="black"/>
</g>
<g opacity="0.7" clip-path="url(#clip38_1_496)">
<path d="M15.15 1531.1C15.8956 1531.1 16.5 1530.5 16.5 1529.75C16.5 1529 15.8956 1528.4 15.15 1528.4C14.4044 1528.4 13.8 1529 13.8 1529.75C13.8 1530.5 14.4044 1531.1 15.15 1531.1Z" fill="black"/>
<path d="M8.85 1531.1C9.59558 1531.1 10.2 1530.5 10.2 1529.75C10.2 1529 9.59558 1528.4 8.85 1528.4C8.10442 1528.4 7.5 1529 7.5 1529.75C7.5 1530.5 8.10442 1531.1 8.85 1531.1Z" fill="black"/>
<path d="M12 1537.4C14.052 1537.4 15.798 1535.91 16.5 1533.8H7.5C8.202 1535.91 9.948 1537.4 12 1537.4Z" fill="black"/>
<path d="M11.991 1523C7.023 1523 3 1527.03 3 1532C3 1536.97 7.023 1541 11.991 1541C16.968 1541 21 1536.97 21 1532C21 1527.03 16.968 1523 11.991 1523ZM12 1539.2C8.022 1539.2 4.8 1535.98 4.8 1532C4.8 1528.02 8.022 1524.8 12 1524.8C15.978 1524.8 19.2 1528.02 19.2 1532C19.2 1535.98 15.978 1539.2 12 1539.2Z" fill="black"/>
</g>
<g opacity="0.7" clip-path="url(#clip39_1_496)">
<path d="M12 1579C13.66 1579 14.99 1577.66 14.99 1576L15 1570C15 1568.34 13.66 1567 12 1567C10.34 1567 9 1568.34 9 1570V1576C9 1577.66 10.34 1579 12 1579ZM10.8 1569.9C10.8 1569.24 11.34 1568.7 12 1568.7C12.66 1568.7 13.2 1569.24 13.2 1569.9L13.19 1576.1C13.19 1576.76 12.66 1577.3 12 1577.3C11.34 1577.3 10.8 1576.76 10.8 1576.1V1569.9ZM17.3 1576C17.3 1579 14.76 1581.1 12 1581.1C9.24 1581.1 6.7 1579 6.7 1576H5C5 1579.41 7.72 1582.23 11 1582.72V1586H13V1582.72C16.28 1582.24 19 1579.42 19 1576H17.3Z" fill="black"/>
</g>
<g clip-path="url(#clip40_1_496)">
<path d="M16.67 1621.13C18.04 1622.06 19 1623.32 19 1625V1628H23V1625C23 1622.82 19.43 1621.53 16.67 1621.13Z" fill="black"/>
<path d="M15 1620C17.21 1620 19 1618.21 19 1616C19 1613.79 17.21 1612 15 1612C14.53 1612 14.09 1612.1 13.67 1612.24C14.5 1613.27 15 1614.58 15 1616C15 1617.42 14.5 1618.73 13.67 1619.76C14.09 1619.9 14.53 1620 15 1620Z" fill="black"/>
<path d="M9 1620C11.21 1620 13 1618.21 13 1616C13 1613.79 11.21 1612 9 1612C6.79 1612 5 1613.79 5 1616C5 1618.21 6.79 1620 9 1620ZM9 1614C10.1 1614 11 1614.9 11 1616C11 1617.1 10.1 1618 9 1618C7.9 1618 7 1617.1 7 1616C7 1614.9 7.9 1614 9 1614Z" fill="black"/>
<path d="M9 1621C6.33 1621 1 1622.34 1 1625V1628H17V1625C17 1622.34 11.67 1621 9 1621ZM15 1626H3V1625.01C3.2 1624.29 6.3 1623 9 1623C11.7 1623 14.8 1624.29 15 1625V1626Z" fill="black"/>
</g>
<g clip-path="url(#clip41_1_496)">
<rect width="16" height="16" transform="translate(4 1652)" fill="white" fill-opacity="0.2"/>
<path d="M6 1654.67V1652.67H7.33333V1654.67H9.33333V1656H7.33333V1658H6V1656H4V1654.67H6ZM8 1658.67V1656.67H10V1654.67H14.6667L15.8867 1656H18C18.7333 1656 19.3333 1656.6 19.3333 1657.33V1665.33C19.3333 1666.07 18.7333 1666.67 18 1666.67H7.33333C6.6 1666.67 6 1666.07 6 1665.33V1658.67H8ZM12.6667 1664.67C14.5067 1664.67 16 1663.17 16 1661.33C16 1659.49 14.5067 1658 12.6667 1658C10.8267 1658 9.33333 1659.49 9.33333 1661.33C9.33333 1663.17 10.8267 1664.67 12.6667 1664.67ZM10.5333 1661.33C10.5333 1662.51 11.4867 1663.47 12.6667 1663.47C13.8467 1663.47 14.8 1662.51 14.8 1661.33C14.8 1660.15 13.8467 1659.2 12.6667 1659.2C11.4867 1659.2 10.5333 1660.15 10.5333 1661.33Z" fill="white"/>
</g>
<g clip-path="url(#clip42_1_496)">
<path d="M18.6 1707.5H21V1709.5H15V1703.5H17V1706.23C18.83 1704.76 20 1702.52 20 1700C20 1695.93 16.94 1692.56 13 1692.07V1690.05C18.05 1690.55 22 1694.81 22 1700C22 1702.99 20.68 1705.67 18.6 1707.5ZM4 1700C4 1697.48 5.17 1695.23 7 1693.77V1696.5H9V1690.5H3V1692.5H5.4C3.32 1694.33 2 1697.01 2 1700C2 1705.19 5.95 1709.45 11 1709.95V1707.93C7.06 1707.44 4 1704.07 4 1700Z" fill="black"/>
</g>
<g clip-path="url(#clip43_1_496)">
<path d="M8.99999 1748.2L4.79999 1744L3.39999 1745.4L8.99999 1751L21 1739L19.6 1737.6L8.99999 1748.2Z" fill="black"/>
</g>
<g clip-path="url(#clip44_1_496)">
<path d="M20 1781H16.83L15 1779H9L7.17 1781H4C2.9 1781 2 1781.9 2 1783V1795C2 1796.1 2.9 1797 4 1797H20C21.1 1797 22 1796.1 22 1795V1783C22 1781.9 21.1 1781 20 1781ZM20 1795H4V1783H7.17H8.05L8.64 1782.35L9.88 1781H14.12L15.36 1782.35L15.95 1783H16.83H20V1795Z" fill="black"/>
<path d="M12 1793C9.79 1793 8 1791.21 8 1789H10L7.5 1786.5L5 1789H7C7 1791.76 9.24 1794 12 1794C12.86 1794 13.65 1793.76 14.36 1793.38L13.62 1792.64C13.13 1792.87 12.58 1793 12 1793Z" fill="black"/>
<path d="M12 1784C11.14 1784 10.35 1784.24 9.64001 1784.62L10.38 1785.35C10.87 1785.13 11.42 1785 12 1785C14.21 1785 16 1786.79 16 1789H14L16.5 1791.5L19 1789H17C17 1786.24 14.76 1784 12 1784Z" fill="black"/>
</g>
<g clip-path="url(#clip45_1_496)">
<path d="M17 1830H13.39L15.67 1832.28L17 1830ZM17 1822H7V1823.61L13.13 1829.74L17 1822ZM3.41 1822.86L2 1824.27L7 1829.27V1833H10V1842L13.58 1835.85L17.73 1840L19.14 1838.59L3.41 1822.86Z" fill="black"/>
</g>
<g clip-path="url(#clip46_1_496)">
<path d="M4.01 1870.03L11.52 1873.25L4 1872.25L4.01 1870.03V1870.03ZM11.51 1878.75L4 1881.97V1879.75L11.51 1878.75V1878.75ZM2.01 1867L2 1874L17 1876L2 1878L2.01 1885L23 1876L2.01 1867Z" fill="black"/>
</g>
<g clip-path="url(#clip47_1_496)">
<path d="M19 1911H5L2 1917L12 1929L22 1917L19 1911ZM9.62 1916L11.12 1913H12.88L14.38 1916H9.62ZM11 1918V1924.68L5.44 1918H11ZM13 1918H18.56L13 1924.68V1918ZM19.26 1916H16.61L15.11 1913H17.76L19.26 1916ZM6.24 1913H8.89L7.39 1916H4.74L6.24 1913Z" fill="black"/>
</g>
<g clip-path="url(#clip48_1_496)">
<path d="M16 1961V1971H8V1961H16ZM14.5 1955H9.5L8.5 1956H5V1958H19V1956H15.5L14.5 1955ZM18 1959H6V1971C6 1972.1 6.9 1973 8 1973H16C17.1 1973 18 1972.1 18 1971V1959Z" fill="#E0796E"/>
</g>
<g clip-path="url(#clip49_1_496)">
<path d="M12 2004C13.1 2004 14 2003.1 14 2002C14 2000.9 13.1 2000 12 2000C10.9 2000 10 2000.9 10 2002C10 2003.1 10.9 2004 12 2004ZM12 2006C10.9 2006 10 2006.9 10 2008C10 2009.1 10.9 2010 12 2010C13.1 2010 14 2009.1 14 2008C14 2006.9 13.1 2006 12 2006ZM12 2012C10.9 2012 10 2012.9 10 2014C10 2015.1 10.9 2016 12 2016C13.1 2016 14 2015.1 14 2014C14 2012.9 13.1 2012 12 2012Z" fill="black"/>
</g>
<g clip-path="url(#clip50_1_496)">
<path d="M19 2053H13V2059H11V2053H5V2051H11V2045H13V2051H19V2053Z" fill="black"/>
</g>
<g clip-path="url(#clip51_1_496)">
<path d="M22 2096C22 2090.48 17.52 2086 12 2086C6.48 2086 2 2090.48 2 2096C2 2101.52 6.48 2106 12 2106C17.52 2106 22 2101.52 22 2096ZM12 2097H8V2095H12V2092L16 2096L12 2100V2097Z" fill="black" fill-opacity="0.8"/>
</g>
<g clip-path="url(#clip52_1_496)">
<path d="M23 2139.99L20.56 2137.2L20.9 2133.51L17.29 2132.69L15.4 2129.5L12 2130.96L8.6 2129.5L6.71 2132.69L3.1 2133.5L3.44 2137.2L1 2139.99L3.44 2142.78L3.1 2146.48L6.71 2147.3L8.6 2150.5L12 2149.03L15.4 2150.49L17.29 2147.3L20.9 2146.48L20.56 2142.79L23 2139.99ZM19.05 2141.47L18.49 2142.12L18.57 2142.97L18.75 2144.92L16.85 2145.35L16.01 2145.54L15.57 2146.28L14.58 2147.96L12.8 2147.19L12 2146.85L11.21 2147.19L9.43 2147.96L8.44 2146.29L8 2145.55L7.16 2145.36L5.26 2144.93L5.44 2142.97L5.52 2142.12L4.96 2141.47L3.67 2140L4.96 2138.52L5.52 2137.87L5.43 2137.01L5.25 2135.07L7.15 2134.64L7.99 2134.45L8.43 2133.71L9.42 2132.03L11.2 2132.8L12 2133.14L12.79 2132.8L14.57 2132.03L15.56 2133.71L16 2134.45L16.84 2134.64L18.74 2135.07L18.56 2137.02L18.48 2137.87L19.04 2138.52L20.33 2139.99L19.05 2141.47Z" fill="black"/>
<path d="M10.09 2141.75L7.77001 2139.42L6.29001 2140.91L10.09 2144.72L17.43 2137.36L15.95 2135.87L10.09 2141.75Z" fill="black"/>
</g>
<g clip-path="url(#clip53_1_496)">
<path d="M4.33999 2174.93L2.92999 2176.34L7.28999 2180.7L6.99999 2181H2.99999V2187H6.99999L12 2192V2185.41L16.18 2189.59C15.53 2190.08 14.8 2190.47 14 2190.7V2192.76C15.34 2192.46 16.57 2191.84 17.61 2191.01L19.66 2193.06L21.07 2191.65L4.33999 2174.93ZM9.99999 2187.17L7.82999 2185H4.99999V2183H7.82999L8.70999 2182.12L9.99999 2183.41V2187.17ZM19 2184C19 2184.82 18.85 2185.61 18.59 2186.34L20.12 2187.87C20.68 2186.7 21 2185.39 21 2184C21 2179.72 18.01 2176.14 14 2175.23V2177.29C16.89 2178.15 19 2180.83 19 2184ZM12 2176L10.12 2177.88L12 2179.76V2176ZM16.5 2184C16.5 2182.23 15.48 2180.71 14 2179.97V2181.76L16.48 2184.24C16.49 2184.16 16.5 2184.08 16.5 2184Z" fill="black"/>
</g>
<g clip-path="url(#clip54_1_496)">
<path d="M6 2235H10V2221H6V2235ZM14 2221V2235H18V2221H14Z" fill="black"/>
</g>
<g clip-path="url(#clip55_1_496)">
<path d="M12 2272C14.21 2272 16 2270.21 16 2268C16 2265.79 14.21 2264 12 2264C9.79 2264 8 2265.79 8 2268C8 2270.21 9.79 2272 12 2272ZM12 2274C9.33 2274 4 2275.34 4 2278V2280H20V2278C20 2275.34 14.67 2274 12 2274Z" fill="black"/>
</g>
<g clip-path="url(#clip56_1_496)">
<path d="M12 2326C13.1 2326 14 2325.1 14 2324H10C10 2325.1 10.9 2326 12 2326ZM18 2320V2315C18 2311.93 16.37 2309.36 13.5 2308.68V2308C13.5 2307.17 12.83 2306.5 12 2306.5C11.17 2306.5 10.5 2307.17 10.5 2308V2308.68C7.64 2309.36 6 2311.92 6 2315V2320L4 2322V2323H20V2322L18 2320ZM16 2321H8V2315C8 2312.52 9.51 2310.5 12 2310.5C14.49 2310.5 16 2312.52 16 2315V2321Z" fill="black"/>
</g>
<g clip-path="url(#clip57_1_496)">
<path d="M18 2356H17V2354C17 2351.24 14.76 2349 12 2349C9.24 2349 7 2351.24 7 2354V2356H6C4.9 2356 4 2356.9 4 2358V2368C4 2369.1 4.9 2370 6 2370H18C19.1 2370 20 2369.1 20 2368V2358C20 2356.9 19.1 2356 18 2356ZM9 2354C9 2352.34 10.34 2351 12 2351C13.66 2351 15 2352.34 15 2354V2356H9V2354ZM18 2368H6V2358H18V2368ZM12 2365C13.1 2365 14 2364.1 14 2363C14 2361.9 13.1 2361 12 2361C10.9 2361 10 2361.9 10 2363C10 2364.1 10.9 2365 12 2365Z" fill="black"/>
</g>
<g clip-path="url(#clip58_1_496)">
<path d="M19 2406V2398C19 2396.9 18.1 2396 17 2396H3C1.9 2396 1 2396.9 1 2398V2406C1 2407.1 1.9 2408 3 2408H17C18.1 2408 19 2407.1 19 2406ZM17 2406H3V2398H17V2406ZM10 2399C8.34 2399 7 2400.34 7 2402C7 2403.66 8.34 2405 10 2405C11.66 2405 13 2403.66 13 2402C13 2400.34 11.66 2399 10 2399ZM23 2399V2410C23 2411.1 22.1 2412 21 2412H4C4 2411 4 2411.1 4 2410H21V2399C22.1 2399 22 2399 23 2399Z" fill="black"/>
</g>
<g clip-path="url(#clip59_1_496)">
<path d="M20 2439H19V2437H17V2439H7V2437H5V2439H4C2.9 2439 2 2439.9 2 2441V2457C2 2458.1 2.9 2459 4 2459H20C21.1 2459 22 2458.1 22 2457V2441C22 2439.9 21.1 2439 20 2439ZM20 2457H4V2446H20V2457ZM20 2444H4V2441H20V2444Z" fill="black"/>
</g>
<defs>
<clipPath id="clip0_1_496">
<rect width="24" height="24" fill="white"/>
</clipPath>
<clipPath id="clip1_1_496">
<rect width="24" height="24" fill="white" transform="translate(0 44)"/>
</clipPath>
<clipPath id="clip2_1_496">
<rect width="14" height="14" fill="white" transform="translate(5 88)"/>
</clipPath>
<clipPath id="clip3_1_496">
<rect width="14" height="14" fill="white" transform="translate(5 122)"/>
</clipPath>
<clipPath id="clip4_1_496">
<rect width="24" height="24" fill="white" transform="translate(0 156)"/>
</clipPath>
<clipPath id="clip5_1_496">
<rect width="24" height="24" fill="white" transform="translate(0 200)"/>
</clipPath>
<clipPath id="clip6_1_496">
<rect width="24" height="24" fill="white" transform="translate(0 244)"/>
</clipPath>
<clipPath id="clip7_1_496">
<rect width="14" height="14" fill="white" transform="translate(5 288)"/>
</clipPath>
<clipPath id="clip8_1_496">
<rect width="16" height="16" fill="white" transform="translate(4 322)"/>
</clipPath>
<clipPath id="clip9_1_496">
<rect width="16" height="16" fill="white" transform="translate(4 358)"/>
</clipPath>
<clipPath id="clip10_1_496">
<rect width="16" height="16" fill="white" transform="translate(4 394)"/>
</clipPath>
<clipPath id="clip11_1_496">
<rect width="16" height="16" fill="white" transform="translate(4 430)"/>
</clipPath>
<clipPath id="clip12_1_496">
<rect width="16" height="16" fill="white" transform="translate(4 466)"/>
</clipPath>
<clipPath id="clip13_1_496">
<rect width="14" height="14" fill="white" transform="translate(5 502)"/>
</clipPath>
<clipPath id="clip14_1_496">
<rect width="24" height="24" fill="white" transform="translate(0 536)"/>
</clipPath>
<clipPath id="clip15_1_496">
<rect width="16" height="16" fill="white" transform="translate(4 580)"/>
</clipPath>
<clipPath id="clip16_1_496">
<rect width="16" height="16" fill="white" transform="translate(4 616)"/>
</clipPath>
<clipPath id="clip17_1_496">
<rect width="16" height="16" fill="white" transform="translate(4 652)"/>
</clipPath>
<clipPath id="clip18_1_496">
<rect width="24" height="24" fill="white" transform="translate(0 688)"/>
</clipPath>
<clipPath id="clip19_1_496">
<rect width="24" height="24" fill="white" transform="translate(0 732)"/>
</clipPath>
<clipPath id="clip20_1_496">
<rect width="24" height="24" fill="white" transform="translate(0 776)"/>
</clipPath>
<clipPath id="clip21_1_496">
<rect width="24" height="24" fill="white" transform="translate(0 820)"/>
</clipPath>
<clipPath id="clip22_1_496">
<rect width="24" height="24" fill="white" transform="translate(0 864)"/>
</clipPath>
<clipPath id="clip23_1_496">
<rect width="16" height="16" fill="white" transform="translate(4 908)"/>
</clipPath>
<clipPath id="clip24_1_496">
<rect width="16" height="16" fill="white" transform="translate(4 944)"/>
</clipPath>
<clipPath id="clip25_1_496">
<rect width="24" height="24" fill="white" transform="translate(0 980)"/>
</clipPath>
<clipPath id="clip26_1_496">
<rect width="24" height="24" fill="white" transform="translate(0 1024)"/>
</clipPath>
<clipPath id="clip27_1_496">
<rect width="24" height="24" fill="white" transform="translate(0 1068)"/>
</clipPath>
<clipPath id="clip28_1_496">
<rect width="24" height="24" fill="white" transform="translate(0 1112)"/>
</clipPath>
<clipPath id="clip29_1_496">
<rect width="16" height="16" fill="white" transform="translate(4 1156)"/>
</clipPath>
<clipPath id="clip30_1_496">
<rect width="16" height="16" fill="white" transform="translate(4 1192)"/>
</clipPath>
<clipPath id="clip31_1_496">
<rect width="24" height="24" fill="white" transform="translate(0 1228)"/>
</clipPath>
<clipPath id="clip32_1_496">
<rect width="24" height="24" fill="white" transform="translate(0 1272)"/>
</clipPath>
<clipPath id="clip33_1_496">
<rect width="16" height="16" fill="white" transform="translate(4 1316)"/>
</clipPath>
<clipPath id="clip34_1_496">
<rect width="24" height="24" fill="white" transform="translate(0 1352)"/>
</clipPath>
<clipPath id="clip35_1_496">
<rect width="16" height="16" fill="white" transform="translate(4 1396)"/>
</clipPath>
<clipPath id="clip36_1_496">
<rect width="24" height="24" fill="white" transform="translate(0 1432)"/>
</clipPath>
<clipPath id="clip37_1_496">
<rect width="24" height="24" fill="white" transform="translate(0 1476)"/>
</clipPath>
<clipPath id="clip38_1_496">
<rect width="24" height="24" fill="white" transform="translate(0 1520)"/>
</clipPath>
<clipPath id="clip39_1_496">
<rect width="24" height="24" fill="white" transform="translate(0 1564)"/>
</clipPath>
<clipPath id="clip40_1_496">
<rect width="24" height="24" fill="white" transform="translate(0 1608)"/>
</clipPath>
<clipPath id="clip41_1_496">
<rect width="16" height="16" fill="white" transform="translate(4 1652)"/>
</clipPath>
<clipPath id="clip42_1_496">
<rect width="24" height="24" fill="white" transform="translate(0 1688)"/>
</clipPath>
<clipPath id="clip43_1_496">
<rect width="24" height="24" fill="white" transform="translate(0 1732)"/>
</clipPath>
<clipPath id="clip44_1_496">
<rect width="24" height="24" fill="white" transform="translate(0 1776)"/>
</clipPath>
<clipPath id="clip45_1_496">
<rect width="24" height="24" fill="white" transform="translate(0 1820)"/>
</clipPath>
<clipPath id="clip46_1_496">
<rect width="24" height="24" fill="white" transform="translate(0 1864)"/>
</clipPath>
<clipPath id="clip47_1_496">
<rect width="24" height="24" fill="white" transform="translate(0 1908)"/>
</clipPath>
<clipPath id="clip48_1_496">
<rect width="24" height="24" fill="white" transform="translate(0 1952)"/>
</clipPath>
<clipPath id="clip49_1_496">
<rect width="24" height="24" fill="white" transform="translate(0 1996)"/>
</clipPath>
<clipPath id="clip50_1_496">
<rect width="24" height="24" fill="white" transform="translate(0 2040)"/>
</clipPath>
<clipPath id="clip51_1_496">
<rect width="24" height="24" fill="white" transform="translate(0 2084)"/>
</clipPath>
<clipPath id="clip52_1_496">
<rect width="24" height="24" fill="white" transform="translate(0 2128)"/>
</clipPath>
<clipPath id="clip53_1_496">
<rect width="24" height="24" fill="white" transform="translate(0 2172)"/>
</clipPath>
<clipPath id="clip54_1_496">
<rect width="24" height="24" fill="white" transform="translate(0 2216)"/>
</clipPath>
<clipPath id="clip55_1_496">
<rect width="24" height="24" fill="white" transform="translate(0 2260)"/>
</clipPath>
<clipPath id="clip56_1_496">
<rect width="24" height="24" fill="white" transform="translate(0 2304)"/>
</clipPath>
<clipPath id="clip57_1_496">
<rect width="24" height="24" fill="white" transform="translate(0 2348)"/>
</clipPath>
<clipPath id="clip58_1_496">
<rect width="24" height="24" fill="white" transform="translate(0 2392)"/>
</clipPath>
<clipPath id="clip59_1_496">
<rect width="24" height="24" fill="white" transform="translate(0 2436)"/>
</clipPath>
</defs>
</svg>
